<?xml version="1.0" encoding="UTF-8"?>
<svg id="Layer_2" data-name="Layer 2" xmlns="http://www.w3.org/2000/svg" viewBox="0 0 836.98 366.18">
  <defs>
    <style>
      .cls-1 {
        fill: #d5d800;
      }
    </style>
  </defs>
  <g id="Layer_1-2" data-name="Layer 1">
    <g>
      <g>
        <path class="cls-1" d="m215.88,308.37c-2.7-1.91-5.93-2.86-9.69-2.86s-7.12.94-9.77,2.82c-1.27.9-2.39,1.97-3.36,3.19v-18.61h-5.65v54.95h5.04v-5.75c1.09,1.56,2.38,2.91,3.89,4.02,2.62,1.92,5.83,2.88,9.62,2.88s7.12-.96,9.85-2.88c2.72-1.92,4.81-4.52,6.26-7.8s2.18-6.98,2.18-11.1-.72-7.79-2.16-11.07c-1.44-3.28-3.5-5.88-6.2-7.79Zm.97,27.3c-.95,2.51-2.38,4.48-4.29,5.93s-4.3,2.18-7.17,2.18-5.34-.71-7.25-2.14c-1.91-1.42-3.33-3.39-4.27-5.9-.94-2.51-1.41-5.35-1.41-8.53s.47-6.09,1.41-8.57c.94-2.48,2.36-4.42,4.25-5.82,1.89-1.4,4.28-2.1,7.16-2.1s5.39.73,7.31,2.18c1.92,1.45,3.35,3.42,4.29,5.92.94,2.49,1.41,5.29,1.41,8.4s-.48,5.95-1.43,8.45Z"/>
        <polygon class="cls-1" points="244.11 340.52 230.57 306.65 224.62 306.65 241.37 347.76 234.58 366.18 240.19 366.18 262.32 306.65 256.6 306.65 244.11 340.52"/>
        <rect class="cls-1" x="281.17" y="292.91" width="5.61" height="54.95"/>
        <path class="cls-1" d="m329.48,314.3c-.79-1.67-1.83-3.15-3.11-4.45-1.29-1.3-2.85-2.33-4.69-3.09s-4-1.14-6.47-1.14c-3.36,0-6.33.74-8.93,2.21-1.96,1.12-3.6,2.63-4.92,4.54v-5.73h-5.08v41.21h5.65v-21.98c0-2.34.27-4.43.8-6.26s1.32-3.39,2.35-4.67c1.03-1.28,2.3-2.27,3.82-2.96,1.51-.69,3.26-1.03,5.25-1.03,2.16,0,4,.39,5.51,1.18,1.51.79,2.75,1.9,3.7,3.34.95,1.44,1.65,3.12,2.08,5.04.43,1.92.65,4.03.65,6.32v21.03h5.65v-22.67c0-1.86-.18-3.72-.53-5.59s-.93-3.64-1.72-5.3Z"/>
        <polygon class="cls-1" points="353.79 340.54 341.62 306.65 335.93 306.65 350.89 347.86 356.69 347.86 371.65 306.65 365.89 306.65 353.79 340.54"/>
        <path class="cls-1" d="m402.71,308.31c-2.88-1.87-6.35-2.8-10.42-2.8s-7.41.89-10.32,2.67c-2.91,1.78-5.17,4.31-6.77,7.59s-2.4,7.17-2.4,11.68.81,8.14,2.44,11.37c1.63,3.23,3.91,5.74,6.85,7.52,2.94,1.78,6.42,2.67,10.44,2.67s7.57-.99,10.74-2.96c3.17-1.97,5.56-4.75,7.19-8.34l-5.23-2.02c-1.27,2.57-3.01,4.54-5.21,5.9-2.2,1.36-4.78,2.04-7.73,2.04-4.33,0-7.66-1.43-10.02-4.29-2.11-2.57-3.27-6.08-3.48-10.51h32.47c.13-4.83-.55-8.99-2.02-12.48-1.48-3.49-3.65-6.16-6.53-8.03Zm-20.44,6.66c2.35-2.87,5.74-4.31,10.17-4.31s7.43,1.36,9.64,4.08c1.81,2.24,2.9,5.38,3.29,9.39h-26.46c.39-3.82,1.5-6.88,3.37-9.16Z"/>
        <path class="cls-1" d="m443.43,327.29c-2.16-1.07-5.14-2.09-8.93-3.05-3.23-.81-5.72-1.56-7.46-2.25s-2.94-1.42-3.61-2.19c-.66-.78-.99-1.71-.99-2.8,0-1.96.92-3.53,2.75-4.71,1.83-1.18,4.21-1.74,7.14-1.66,3.1.05,5.67.78,7.69,2.19,2.02,1.41,3.22,3.33,3.61,5.74l5.72-1.03c-.28-2.39-1.17-4.49-2.67-6.3-1.5-1.81-3.48-3.21-5.93-4.22-2.46-1-5.23-1.51-8.34-1.51s-5.83.49-8.17,1.47c-2.34.98-4.17,2.35-5.5,4.12-1.32,1.77-1.98,3.82-1.98,6.16,0,1.93.44,3.57,1.34,4.9.89,1.34,2.39,2.51,4.5,3.53,2.11,1.02,5.04,2.04,8.78,3.05,3.49.94,6.11,1.76,7.86,2.44,1.76.69,2.92,1.43,3.49,2.23.57.8.86,1.84.86,3.11,0,2.26-.9,4.05-2.71,5.36-1.81,1.31-4.27,1.97-7.4,1.97s-5.9-.69-8.07-2.08c-2.18-1.39-3.57-3.25-4.18-5.59l-5.72.95c.71,3.71,2.63,6.62,5.74,8.7,3.12,2.09,7.09,3.13,11.93,3.13s9.04-1.11,11.93-3.34c2.89-2.23,4.33-5.29,4.33-9.18,0-2.14-.46-3.93-1.37-5.38-.92-1.45-2.46-2.71-4.62-3.78Z"/>
        <path class="cls-1" d="m465.76,295.2h-5.57v11.45h-8.82v4.81h8.82v21.49c0,2.01.03,3.8.1,5.36.06,1.56.46,3.11,1.2,4.64.92,1.83,2.26,3.18,4.03,4.05,1.77.87,3.78,1.35,6.03,1.45,2.25.1,4.53-.09,6.85-.57v-4.92c-2.95.48-5.43.56-7.42.23-2-.33-3.45-1.35-4.37-3.05-.48-.89-.74-1.91-.78-3.07-.04-1.16-.06-2.6-.06-4.33v-21.26h12.63v-4.81h-12.63v-11.45Z"/>
        <path class="cls-1" d="m510.71,308.31c-2.88-1.87-6.35-2.8-10.42-2.8s-7.41.89-10.32,2.67c-2.91,1.78-5.17,4.31-6.77,7.59-1.6,3.28-2.4,7.17-2.4,11.68s.81,8.14,2.44,11.37c1.63,3.23,3.91,5.74,6.85,7.52,2.94,1.78,6.42,2.67,10.44,2.67s7.57-.99,10.74-2.96c3.17-1.97,5.56-4.75,7.19-8.34l-5.23-2.02c-1.27,2.57-3.01,4.54-5.21,5.9-2.2,1.36-4.78,2.04-7.73,2.04-4.33,0-7.66-1.43-10.02-4.29-2.11-2.57-3.27-6.08-3.48-10.51h32.47c.13-4.83-.55-8.99-2.02-12.48-1.48-3.49-3.65-6.16-6.53-8.03Zm-20.44,6.66c2.35-2.87,5.74-4.31,10.17-4.31s7.43,1.36,9.64,4.08c1.81,2.24,2.9,5.38,3.29,9.39h-26.46c.39-3.82,1.5-6.88,3.37-9.16Z"/>
        <path class="cls-1" d="m550.03,341.7c-1.97,1.29-4.36,1.93-7.16,1.93-4.43,0-7.76-1.49-10-4.48-2.24-2.99-3.38-6.95-3.43-11.89.03-3.21.52-6.04,1.49-8.51.97-2.47,2.44-4.39,4.43-5.78,1.98-1.39,4.49-2.08,7.52-2.08,2.7,0,5.09.68,7.19,2.04,2.1,1.36,3.63,3.28,4.6,5.74l5.5-1.76c-1.14-3.54-3.26-6.32-6.35-8.36-3.09-2.04-6.72-3.05-10.89-3.05s-7.58.91-10.46,2.73c-2.88,1.82-5.08,4.36-6.6,7.63s-2.32,7.07-2.37,11.39c.05,4.25.82,8.01,2.31,11.28,1.49,3.27,3.67,5.83,6.55,7.69,2.87,1.86,6.39,2.79,10.53,2.79s7.62-.96,10.57-2.88c2.95-1.92,5.19-4.71,6.72-8.38l-5.65-1.68c-1.02,2.47-2.51,4.34-4.48,5.63Z"/>
      </g>
      <g>
        <path class="cls-1" d="m122.14,173.75c-4.08,5.5-9.47,9.87-16.18,13.13-6.72,3.26-14.66,4.88-23.82,4.88-11.81,0-21.63-2.69-29.47-8.09-7.84-5.39-13.69-12.72-17.56-21.99-3.87-9.26-5.8-19.49-5.8-30.69s1.93-21.99,5.8-31.15c3.86-9.16,9.67-16.38,17.41-21.68,7.73-5.29,17.41-7.94,29.01-7.94,13.44,0,24.12,3.41,32.06,10.23,7.94,6.82,12.62,15.32,14.05,25.5h28.09c-.82-12.62-4.53-23.56-11.15-32.83-6.62-9.26-15.37-16.43-26.26-21.53-10.89-5.09-23.16-7.63-36.8-7.63s-25.55,2.44-35.73,7.33c-10.18,4.88-18.68,11.35-25.5,19.39-6.82,8.05-11.91,17.06-15.27,27.02-3.36,9.98-5.04,20.15-5.04,30.54v5.5c0,9.98,1.68,19.96,5.04,29.93,3.36,9.97,8.4,19.09,15.12,27.33,6.72,8.25,15.21,14.81,25.5,19.7,10.28,4.88,22.44,7.33,36.49,7.33s26.31-2.6,37.41-7.79c11.09-5.19,20.05-12.47,26.87-21.84,6.82-9.36,10.53-20.46,11.15-33.28h-28.09c-.82,6.93-3.26,13.13-7.33,18.63Z"/>
        <rect class="cls-1" x="187.41" width="29.31" height="212.53"/>
        <path class="cls-1" d="m351.31,53.59c-10.59-3.97-24.23-5.96-40.92-5.96-4.89,0-9.98.05-15.27.15-5.29.1-10.43.3-15.42.61-4.99.31-9.73.66-14.2,1.07v25.65c4.47-.41,9.77-.71,15.88-.92,6.11-.2,12.52-.41,19.24-.61,6.72-.2,13.23-.31,19.54-.31,11.2,0,19.69,2.85,25.5,8.55,5.8,5.7,8.7,14.15,8.7,25.35v3.97h-41.22c-14.04,0-26.06,1.99-36.03,5.96-9.98,3.97-17.56,9.82-22.75,17.56-5.19,7.74-7.79,17.41-7.79,29.01s2.39,20.76,7.18,28.7c4.78,7.94,11.61,14,20.46,18.17,8.85,4.17,19.39,6.26,31.61,6.26,11.4,0,21.11-2.04,29.16-6.11,8.04-4.07,14.35-10.03,18.93-17.86,2.19-3.75,3.97-7.95,5.34-12.57v32.27h23.21v-103.21c0-15.27-2.55-27.38-7.63-36.34-5.09-8.95-12.93-15.42-23.51-19.39Zm-3.81,123.37c-4.17,6.01-9.42,10.28-15.73,12.82-6.31,2.55-12.93,3.82-19.85,3.82-11.81,0-20.87-2.75-27.18-8.25-6.31-5.5-9.46-12.72-9.46-21.68s3.15-16.29,9.46-21.99c6.31-5.69,15.37-8.55,27.18-8.55h42.44v18.93c-.41,10.59-2.7,18.88-6.87,24.89Z"/>
        <rect class="cls-1" x="530.85" y="44.87" width="29.32" height="167.66"/>
        <path class="cls-1" d="m617.31,0h-28.09v156.96c0,14.45,2.39,25.91,7.18,34.35,4.78,8.45,11.6,14.41,20.46,17.86,8.85,3.46,19.39,5.19,31.6,5.19h25.04v-26.26h-28.7c-8.76,0-15.53-2.39-20.31-7.18-4.79-4.78-7.18-11.55-7.18-20.31v-89.16h56.19v-21.99h-56.19V0Z"/>
        <path class="cls-1" d="m788.99,208.81l47.99-159.34h-28.7l-34.45,116.08-40.7-116.08h-29.92l58.01,158.55-4.24,14.29c-2.04,6.72-3.61,12.06-6.77,16.13-3.16,4.07-4.22,5.23-9,6.96-4.78,1.73-14.57,1.33-21.49,1.33h-23.51v29.32h21.68c11.19,0,21.02-1.58,29.47-4.73,8.45-3.16,15.62-8.15,21.53-14.96,5.9-6.82,10.48-15.63,13.74-26.42l6.35-21.07h.04l-.02-.06Z"/>
        <path class="cls-1" d="m469.92,44.88c-18.46.46-33.04,6.25-43.33,17.23-14.29,15.25-14.41,34.57-14.28,38.44,0,6.14.04,107.02.02,111.94l29,.11c.02-5.11-.02-107.97-.02-112.35l.02-.23-.04-.46c-.01-.97.04-11.21,6.75-18.22,4.75-4.95,12.29-10.97,22.43-11.25h34.48v-25.22h-35.03Z"/>
        <path class="cls-1" d="m560.17,246.73v29.32h-20.16c-5.05,0-9.15-4.1-9.15-9.15v-20.16h29.32Z"/>
      </g>
    </g>
  </g>
</svg>